# xmcd CD database file
#
# Track frame offsets:
#	150
#	12197
#	24505
#	37442
#	47120
#	58907
#	69400
#	81307
#	94455
#	107142
#	119742
#	130122
#	140652
#	154320
#	166697
#	186930
#	202637
#
# Disc length: 2877 seconds
#
# Revision: 0
# Processed by: cddbd v1.5.1PL0 Copyright (c) Steve Scherf et al.
# Submitted via: Feurio! 1.62 - http://www.feurio.com
#
DISCID=f70b3b11
DTITLE=Various Artist - Country Hits
DYEAR=1990
DGENRE=Country
TTITLE0=Tammy Wynette - Stand by your man
TTITLE1=Johnny Cash - I walk the line
TTITLE2=John Denver - Take me home Country roads
TTITLE3=Eddie Jones - Deep in the heart of Texas
TTITLE4=Frankie Laine - High noon
TTITLE5=Frankie Laine - Sixteen tons
TTITLE6=Kenny Rogers - Ruby, don't take your love to town
TTITLE7=Lynn Anderson - Rose garden
TTITLE8=Lee Hazlewood - These boots are made for walking
TTITLE9=Susan Raye - L.A. International Airport
TTITLE10=Roger Miller - Release me
TTITLE11=Don Gibson - Oh, lonesome me
TTITLE12=Willie Nelson - Home is where you are happy
TTITLE13=Oak Ridge Boys - You'll never walk alone
TTITLE14=Gram Parsons and Emmylou Harris - Love hurts
TTITLE15=Joe Spears - Blanket on the ground
TTITLE16=Patti Page - Tennessee Waltz
EXTD=Hoestra präsentiert
EXTT0=
EXTT1=
EXTT2=
EXTT3=
EXTT4=
EXTT5=
EXTT6=
EXTT7=
EXTT8=
EXTT9=
EXTT10=
EXTT11=
EXTT12=
EXTT13=
EXTT14=
EXTT15=
EXTT16=
PLAYORDER=
